<?xml version="1.0" encoding="UTF-8"?>
<svg id="Layer_2" data-name="Layer 2" xmlns="http://www.w3.org/2000/svg" viewBox="0 0 1054.34 62.23">
  <defs>
    <style>
      .cls-1 {
        fill: #294799;
      }

      .cls-2 {
        fill: #9a0a14;
      }
    </style>
  </defs>
  <g id="Layer_1-2" data-name="Layer 1">
    <g>
      <g>
        <polygon class="cls-2" points="1025.66 59.98 1024.58 59.98 1024.58 58.87 1019.58 53.75 1018.49 53.75 1018.49 52.64 1016.31 50.41 1014.13 52.64 1014.13 53.75 1013.04 53.75 1008.05 58.86 1008.05 59.98 1006.96 59.98 1004.79 62.19 1004.83 62.23 1027.8 62.23 1027.83 62.2 1025.66 59.98"/>
        <polygon class="cls-2" points="1008.05 2.2 1008.05 3.28 1013.07 8.43 1014.13 8.43 1014.13 9.51 1016.31 11.74 1018.49 9.51 1018.49 8.43 1019.55 8.43 1024.58 3.29 1024.58 2.2 1025.64 2.2 1027.79 0 1004.84 0 1006.99 2.2 1008.05 2.2"/>
        <polygon class="cls-2" points="976.88 22.37 975.79 22.37 970.8 27.48 970.8 28.6 969.71 28.6 967.54 30.81 969.74 33.06 970.8 33.06 970.8 34.14 975.82 39.28 976.88 39.28 976.88 40.37 979.06 42.6 981.24 40.37 981.24 39.28 982.3 39.28 987.33 34.14 987.33 33.06 988.39 33.06 990.58 30.82 988.41 28.6 987.33 28.6 987.33 27.49 982.33 22.37 981.24 22.37 981.24 21.26 979.06 19.03 976.88 21.26 976.88 22.37"/>
        <polygon class="cls-2" points="950.35 59.98 949.26 59.98 949.26 58.87 944.26 53.75 943.18 53.75 943.18 52.64 941 50.41 938.82 52.64 938.82 53.75 937.73 53.75 932.73 58.86 932.73 59.98 931.64 59.98 929.48 62.19 929.51 62.23 952.48 62.23 952.52 62.2 950.35 59.98"/>
        <polygon class="cls-2" points="932.73 2.2 932.73 3.28 937.76 8.43 938.82 8.43 938.82 9.51 941 11.74 943.18 9.51 943.18 8.43 944.24 8.43 949.26 3.29 949.26 2.2 950.32 2.2 952.47 0 929.52 0 931.67 2.2 932.73 2.2"/>
        <polygon class="cls-2" points="901.57 22.37 900.48 22.37 895.48 27.48 895.48 28.6 894.39 28.6 892.23 30.81 894.43 33.06 895.48 33.06 895.48 34.14 900.51 39.28 901.57 39.28 901.57 40.37 903.75 42.6 905.93 40.37 905.93 39.28 906.99 39.28 912.01 34.14 912.01 33.06 913.07 33.06 915.27 30.82 913.1 28.6 912.01 28.6 912.01 27.49 907.02 22.37 905.93 22.37 905.93 21.26 903.75 19.03 901.57 21.26 901.57 22.37"/>
        <polygon class="cls-2" points="875.03 59.98 873.95 59.98 873.95 58.87 868.95 53.75 867.86 53.75 867.86 52.64 865.68 50.41 863.5 52.64 863.5 53.75 862.41 53.75 857.42 58.86 857.42 59.98 856.33 59.98 854.16 62.19 854.2 62.23 877.17 62.23 877.2 62.2 875.03 59.98"/>
        <polygon class="cls-2" points="857.42 2.2 857.42 3.28 862.44 8.43 863.5 8.43 863.5 9.51 865.68 11.74 867.86 9.51 867.86 8.43 868.92 8.43 873.95 3.29 873.95 2.2 875.01 2.2 877.16 0 854.21 0 856.36 2.2 857.42 2.2"/>
        <polygon class="cls-2" points="826.25 22.37 825.17 22.37 820.17 27.48 820.17 28.6 819.08 28.6 816.92 30.81 819.11 33.06 820.17 33.06 820.17 34.14 825.19 39.28 826.25 39.28 826.25 40.37 828.43 42.6 830.61 40.37 830.61 39.28 831.67 39.28 836.7 34.14 836.7 33.06 837.76 33.06 839.95 30.82 837.78 28.6 836.7 28.6 836.7 27.49 831.7 22.37 830.61 22.37 830.61 21.26 828.43 19.03 826.25 21.26 826.25 22.37"/>
        <polygon class="cls-2" points="799.72 59.98 798.63 59.98 798.63 58.87 793.64 53.75 792.55 53.75 792.55 52.64 790.37 50.41 788.19 52.64 788.19 53.75 787.1 53.75 782.1 58.86 782.1 59.98 781.01 59.98 778.85 62.19 778.88 62.23 801.86 62.23 801.89 62.2 799.72 59.98"/>
        <polygon class="cls-2" points="782.1 2.2 782.1 3.28 787.13 8.43 788.19 8.43 788.19 9.51 790.37 11.74 792.55 9.51 792.55 8.43 793.61 8.43 798.63 3.29 798.63 2.2 799.69 2.2 801.85 0 778.9 0 781.05 2.2 782.1 2.2"/>
        <polygon class="cls-2" points="750.94 22.37 749.85 22.37 744.86 27.48 744.86 28.6 743.76 28.6 741.6 30.81 743.8 33.06 744.86 33.06 744.86 34.14 749.88 39.28 750.94 39.28 750.94 40.37 753.12 42.6 755.3 40.37 755.3 39.28 756.36 39.28 761.38 34.14 761.38 33.06 762.45 33.06 764.64 30.82 762.47 28.6 761.38 28.6 761.38 27.49 756.39 22.37 755.3 22.37 755.3 21.26 753.12 19.03 750.94 21.26 750.94 22.37"/>
        <polygon class="cls-2" points="724.41 59.98 723.32 59.98 723.32 58.87 718.32 53.75 717.23 53.75 717.23 52.64 715.05 50.41 712.87 52.64 712.87 53.75 711.79 53.75 706.79 58.86 706.79 59.98 705.7 59.98 703.54 62.19 703.57 62.23 726.54 62.23 726.57 62.2 724.41 59.98"/>
        <polygon class="cls-2" points="706.79 2.2 706.79 3.28 711.82 8.43 712.87 8.43 712.87 9.51 715.05 11.74 717.23 9.51 717.23 8.43 718.29 8.43 723.32 3.29 723.32 2.2 724.38 2.2 726.53 0 703.58 0 705.73 2.2 706.79 2.2"/>
        <polygon class="cls-2" points="675.63 22.37 674.54 22.37 669.54 27.48 669.54 28.6 668.45 28.6 666.29 30.81 668.48 33.06 669.54 33.06 669.54 34.14 674.57 39.28 675.63 39.28 675.63 40.37 677.8 42.6 679.98 40.37 679.98 39.28 681.04 39.28 686.07 34.14 686.07 33.06 687.13 33.06 689.32 30.82 687.16 28.6 686.07 28.6 686.07 27.49 681.07 22.37 679.98 22.37 679.98 21.26 677.81 19.03 675.63 21.26 675.63 22.37"/>
        <polygon class="cls-2" points="649.09 59.98 648 59.98 648 58.87 643.01 53.75 641.92 53.75 641.92 52.64 639.74 50.41 637.56 52.64 637.56 53.75 636.47 53.75 631.48 58.86 631.48 59.98 630.39 59.98 628.22 62.19 628.26 62.23 651.23 62.23 651.26 62.2 649.09 59.98"/>
        <polygon class="cls-2" points="631.48 2.2 631.48 3.28 636.5 8.43 637.56 8.43 637.56 9.51 639.74 11.74 641.92 9.51 641.92 8.43 642.98 8.43 648 3.29 648 2.2 649.07 2.2 651.22 0 628.27 0 630.42 2.2 631.48 2.2"/>
        <polygon class="cls-2" points="600.31 22.37 599.22 22.37 594.23 27.48 594.23 28.6 593.14 28.6 590.97 30.81 593.17 33.06 594.23 33.06 594.23 34.14 599.25 39.28 600.31 39.28 600.31 40.37 602.49 42.6 604.67 40.37 604.67 39.28 605.73 39.28 610.75 34.14 610.75 33.06 611.82 33.06 614.01 30.82 611.84 28.6 610.75 28.6 610.75 27.49 605.76 22.37 604.67 22.37 604.67 21.26 602.49 19.03 600.31 21.26 600.31 22.37"/>
        <polygon class="cls-2" points="573.78 59.98 572.69 59.98 572.69 58.87 567.69 53.75 566.6 53.75 566.6 52.64 564.43 50.41 562.25 52.64 562.25 53.75 561.16 53.75 556.16 58.86 556.16 59.98 555.07 59.98 552.91 62.19 552.94 62.23 575.91 62.23 575.94 62.2 573.78 59.98"/>
        <polygon class="cls-2" points="556.16 2.2 556.16 3.28 561.19 8.43 562.25 8.43 562.25 9.51 564.43 11.74 566.6 9.51 566.6 8.43 567.67 8.43 572.69 3.29 572.69 2.2 573.75 2.2 575.9 0 552.95 0 555.1 2.2 556.16 2.2"/>
        <polygon class="cls-2" points="525 22.37 523.91 22.37 518.91 27.48 518.91 28.6 517.82 28.6 515.66 30.81 517.85 33.06 518.91 33.06 518.91 34.14 523.94 39.28 525 39.28 525 40.37 527.18 42.6 529.36 40.37 529.36 39.28 530.42 39.28 535.44 34.14 535.44 33.06 536.5 33.06 538.69 30.82 536.53 28.6 535.44 28.6 535.44 27.49 530.44 22.37 529.36 22.37 529.36 21.26 527.18 19.03 525 21.26 525 22.37"/>
        <polygon class="cls-2" points="498.46 59.98 497.38 59.98 497.38 58.87 492.38 53.75 491.29 53.75 491.29 52.64 489.11 50.41 486.93 52.64 486.93 53.75 485.84 53.75 480.85 58.86 480.85 59.98 479.76 59.98 477.59 62.19 477.63 62.23 500.6 62.23 500.63 62.2 498.46 59.98"/>
        <polygon class="cls-2" points="480.85 2.2 480.85 3.28 485.87 8.43 486.93 8.43 486.93 9.51 489.11 11.74 491.29 9.51 491.29 8.43 492.35 8.43 497.38 3.29 497.38 2.2 498.44 2.2 500.59 0 477.64 0 479.79 2.2 480.85 2.2"/>
        <polygon class="cls-2" points="449.68 22.37 448.59 22.37 443.6 27.48 443.6 28.6 442.51 28.6 440.34 30.81 442.54 33.06 443.6 33.06 443.6 34.14 448.62 39.28 449.68 39.28 449.68 40.37 451.86 42.6 454.04 40.37 454.04 39.28 455.1 39.28 460.13 34.14 460.13 33.06 461.19 33.06 463.38 30.82 461.21 28.6 460.13 28.6 460.13 27.49 455.13 22.37 454.04 22.37 454.04 21.26 451.86 19.03 449.68 21.26 449.68 22.37"/>
        <polygon class="cls-2" points="423.15 59.98 422.06 59.98 422.06 58.87 417.06 53.75 415.98 53.75 415.98 52.64 413.8 50.41 411.62 52.64 411.62 53.75 410.53 53.75 405.53 58.86 405.53 59.98 404.44 59.98 402.28 62.19 402.31 62.23 425.28 62.23 425.31 62.2 423.15 59.98"/>
        <polygon class="cls-2" points="405.53 2.2 405.53 3.28 410.56 8.43 411.62 8.43 411.62 9.51 413.8 11.74 415.98 9.51 415.98 8.43 417.04 8.43 422.06 3.29 422.06 2.2 423.12 2.2 425.27 0 402.32 0 404.47 2.2 405.53 2.2"/>
        <polygon class="cls-2" points="374.37 22.37 373.28 22.37 368.28 27.48 368.28 28.6 367.19 28.6 365.03 30.81 367.23 33.06 368.28 33.06 368.28 34.14 373.31 39.28 374.37 39.28 374.37 40.37 376.55 42.6 378.73 40.37 378.73 39.28 379.79 39.28 384.81 34.14 384.81 33.06 385.87 33.06 388.07 30.82 385.9 28.6 384.81 28.6 384.81 27.49 379.82 22.37 378.73 22.37 378.73 21.26 376.55 19.03 374.37 21.26 374.37 22.37"/>
        <polygon class="cls-2" points="347.83 59.98 346.75 59.98 346.75 58.87 341.75 53.75 340.66 53.75 340.66 52.64 338.48 50.41 336.3 52.64 336.3 53.75 335.21 53.75 330.22 58.86 330.22 59.98 329.13 59.98 326.96 62.19 327 62.23 349.97 62.23 350 62.2 347.83 59.98"/>
        <polygon class="cls-2" points="330.22 2.2 330.22 3.28 335.24 8.43 336.3 8.43 336.3 9.51 338.48 11.74 340.66 9.51 340.66 8.43 341.72 8.43 346.75 3.29 346.75 2.2 347.81 2.2 349.96 0 327.01 0 329.16 2.2 330.22 2.2"/>
        <polygon class="cls-2" points="299.05 22.37 297.97 22.37 292.97 27.48 292.97 28.6 291.88 28.6 289.72 30.81 291.91 33.06 292.97 33.06 292.97 34.14 297.99 39.28 299.05 39.28 299.05 40.37 301.23 42.6 303.41 40.37 303.41 39.28 304.47 39.28 309.5 34.14 309.5 33.06 310.56 33.06 312.75 30.82 310.58 28.6 309.5 28.6 309.5 27.49 304.5 22.37 303.41 22.37 303.41 21.26 301.23 19.03 299.05 21.26 299.05 22.37"/>
        <polygon class="cls-2" points="272.52 59.98 271.43 59.98 271.43 58.87 266.44 53.75 265.35 53.75 265.35 52.64 263.17 50.41 260.99 52.64 260.99 53.75 259.9 53.75 254.9 58.86 254.9 59.98 253.81 59.98 251.65 62.19 251.68 62.23 274.66 62.23 274.69 62.2 272.52 59.98"/>
        <polygon class="cls-2" points="254.9 2.2 254.9 3.28 259.93 8.43 260.99 8.43 260.99 9.51 263.17 11.74 265.35 9.51 265.35 8.43 266.41 8.43 271.43 3.29 271.43 2.2 272.49 2.2 274.64 0 251.69 0 253.85 2.2 254.9 2.2"/>
        <polygon class="cls-2" points="223.74 22.37 222.65 22.37 217.66 27.48 217.66 28.6 216.56 28.6 214.4 30.81 216.6 33.06 217.66 33.06 217.66 34.14 222.68 39.28 223.74 39.28 223.74 40.37 225.92 42.6 228.1 40.37 228.1 39.28 229.16 39.28 234.18 34.14 234.18 33.06 235.25 33.06 237.44 30.82 235.27 28.6 234.18 28.6 234.18 27.49 229.19 22.37 228.1 22.37 228.1 21.26 225.92 19.03 223.74 21.26 223.74 22.37"/>
        <polygon class="cls-2" points="197.21 59.98 196.12 59.98 196.12 58.87 191.12 53.75 190.03 53.75 190.03 52.64 187.85 50.41 185.67 52.64 185.67 53.75 184.59 53.75 179.59 58.86 179.59 59.98 178.5 59.98 176.34 62.19 176.37 62.23 199.34 62.23 199.37 62.2 197.21 59.98"/>
        <polygon class="cls-2" points="179.59 2.2 179.59 3.28 184.61 8.43 185.67 8.43 185.67 9.51 187.85 11.74 190.03 9.51 190.03 8.43 191.09 8.43 196.12 3.29 196.12 2.2 197.18 2.2 199.33 0 176.38 0 178.53 2.2 179.59 2.2"/>
        <polygon class="cls-2" points="148.43 22.37 147.34 22.37 142.34 27.48 142.34 28.6 141.25 28.6 139.09 30.81 141.28 33.06 142.34 33.06 142.34 34.14 147.37 39.28 148.43 39.28 148.43 40.37 150.6 42.6 152.78 40.37 152.78 39.28 153.84 39.28 158.87 34.14 158.87 33.06 159.93 33.06 162.12 30.82 159.96 28.6 158.87 28.6 158.87 27.49 153.87 22.37 152.78 22.37 152.78 21.26 150.6 19.03 148.43 21.26 148.43 22.37"/>
        <polygon class="cls-2" points="121.89 59.98 120.8 59.98 120.8 58.87 115.81 53.75 114.72 53.75 114.72 52.64 112.54 50.41 110.36 52.64 110.36 53.75 109.27 53.75 104.28 58.86 104.28 59.98 103.18 59.98 101.02 62.19 101.06 62.23 124.03 62.23 124.06 62.2 121.89 59.98"/>
        <polygon class="cls-2" points="104.28 2.2 104.28 3.28 109.3 8.43 110.36 8.43 110.36 9.51 112.54 11.74 114.72 9.51 114.72 8.43 115.78 8.43 120.8 3.29 120.8 2.2 121.87 2.2 124.02 0 101.07 0 103.22 2.2 104.28 2.2"/>
        <polygon class="cls-2" points="73.11 22.37 72.02 22.37 67.03 27.48 67.03 28.6 65.94 28.6 63.77 30.81 65.97 33.06 67.03 33.06 67.03 34.14 72.05 39.28 73.11 39.28 73.11 40.37 75.29 42.6 77.47 40.37 77.47 39.28 78.53 39.28 83.55 34.14 83.55 33.06 84.62 33.06 86.81 30.82 84.64 28.6 83.55 28.6 83.55 27.49 78.56 22.37 77.47 22.37 77.47 21.26 75.29 19.03 73.11 21.26 73.11 22.37"/>
        <polygon class="cls-2" points="46.58 59.98 45.49 59.98 45.49 58.87 40.49 53.75 39.4 53.75 39.4 52.64 37.23 50.41 35.05 52.64 35.05 53.75 33.96 53.75 28.96 58.86 28.96 59.98 27.87 59.98 25.71 62.19 25.74 62.23 48.71 62.23 48.74 62.2 46.58 59.98"/>
        <polygon class="cls-2" points="28.96 2.2 28.96 3.28 33.99 8.43 35.05 8.43 35.05 9.51 37.22 11.74 39.4 9.51 39.4 8.43 40.46 8.43 45.49 3.29 45.49 2.2 46.55 2.2 48.7 0 25.75 0 27.9 2.2 28.96 2.2"/>
        <polygon class="cls-2" points="1052.2 22.37 1051.11 22.37 1046.11 27.48 1046.11 28.6 1045.02 28.6 1042.86 30.81 1045.05 33.06 1046.11 33.06 1046.11 34.14 1051.14 39.28 1052.2 39.28 1052.2 40.37 1054.34 42.56 1054.34 19.07 1052.2 21.26 1052.2 22.37"/>
        <polygon class="cls-2" points="2.16 39.28 3.22 39.28 8.24 34.14 8.24 33.06 9.3 33.06 11.49 30.82 9.33 28.6 8.24 28.6 8.24 27.49 3.24 22.37 2.16 22.37 2.16 21.26 0 19.05 0 42.57 2.16 40.37 2.16 39.28"/>
      </g>
      <g>
        <polygon class="cls-1" points="1014.16 31.27 1014.16 36.49 1008.52 36.49 1008.52 44.53 999.04 44.53 999.04 54.23 991.19 54.23 991.19 60.04 985.75 60.04 985.75 62.23 995.58 62.23 995.58 58.72 1003.44 58.72 1003.44 49.02 1012.92 49.02 1012.92 40.99 1019.71 40.99 1019.71 49.02 1029.19 49.02 1029.19 58.72 1037.04 58.72 1037.04 62.23 1046.88 62.23 1046.88 60.04 1041.44 60.04 1041.44 54.23 1033.58 54.23 1033.58 44.53 1024.1 44.53 1024.1 36.49 1018.46 36.49 1018.46 30.96 1018.46 30.96 1018.46 31.27 1014.16 31.27"/>
        <polygon class="cls-1" points="991.19 2.19 991.19 7.93 999.04 7.93 999.04 17.63 1008.52 17.63 1008.52 25.67 1014.16 25.67 1014.16 31.27 1014.16 31.27 1018.46 31.27 1018.46 30.96 1018.46 25.67 1024.1 25.67 1024.1 17.63 1033.58 17.63 1033.58 7.93 1041.44 7.93 1041.44 2.19 1046.88 2.19 1046.88 0 1037.04 0 1037.04 3.43 1029.19 3.43 1029.19 13.13 1019.71 13.13 1019.71 21.17 1012.92 21.17 1012.92 13.13 1003.44 13.13 1003.44 3.43 995.58 3.43 995.58 0 985.75 0 985.75 2.19 991.19 2.19"/>
        <path class="cls-1" d="M971.27,5.11v8.04h-9.48v9.7h-7.85v5.81h-5.44v4.39h5.44v5.74h7.85v9.7h9.48v8.04h5.64v5.6h4.29v-5.6h5.64v-8.04h9.48v-9.7h7.85v-5.74h5.44v-4.39h-5.44v-5.81h-7.85v-9.7h-9.48V5.11h-5.64V0h-4.29v5.11h-5.64ZM982.46,9.6v8.04h9.48v9.7h7.85v6.95h-7.85v9.7h-9.48v8.04h-6.79v-8.04h-9.48v-9.7h-7.85v-6.95h7.85v-9.7h9.48v-8.04h6.79Z"/>
        <polygon class="cls-1" points="938.85 31.27 938.85 36.49 933.21 36.49 933.21 44.53 923.73 44.53 923.73 54.23 915.87 54.23 915.87 60.04 910.43 60.04 910.43 62.23 920.27 62.23 920.27 58.72 928.12 58.72 928.12 49.02 937.6 49.02 937.6 40.99 944.39 40.99 944.39 49.02 953.87 49.02 953.87 58.72 961.73 58.72 961.73 62.23 971.56 62.23 971.56 60.04 966.12 60.04 966.12 54.23 958.27 54.23 958.27 44.53 948.79 44.53 948.79 36.49 943.14 36.49 943.14 30.96 943.14 30.96 943.14 31.27 938.85 31.27"/>
        <polygon class="cls-1" points="915.87 2.19 915.87 7.93 923.73 7.93 923.73 17.63 933.21 17.63 933.21 25.67 938.85 25.67 938.85 31.27 938.85 31.27 943.14 31.27 943.14 30.96 943.14 25.67 948.79 25.67 948.79 17.63 958.27 17.63 958.27 7.93 966.12 7.93 966.12 2.19 971.56 2.19 971.56 0 961.73 0 961.73 3.43 953.87 3.43 953.87 13.13 944.39 13.13 944.39 21.17 937.6 21.17 937.6 13.13 928.12 13.13 928.12 3.43 920.27 3.43 920.27 0 910.43 0 910.43 2.19 915.87 2.19"/>
        <path class="cls-1" d="M895.96,5.11v8.04h-9.48v9.7h-7.85v5.81h-5.44v4.39h5.44v5.74h7.85v9.7h9.48v8.04h5.64v5.6h4.29v-5.6h5.64v-8.04h9.48v-9.7h7.85v-5.74h5.44v-4.39h-5.44v-5.81h-7.85v-9.7h-9.48V5.11h-5.64V0h-4.29v5.11h-5.64ZM907.14,9.6v8.04h9.48v9.7h7.85v6.95h-7.85v9.7h-9.48v8.04h-6.79v-8.04h-9.48v-9.7h-7.85v-6.95h7.85v-9.7h9.48v-8.04h6.79Z"/>
        <polygon class="cls-1" points="863.54 31.27 863.54 36.49 857.89 36.49 857.89 44.53 848.41 44.53 848.41 54.23 840.56 54.23 840.56 60.04 835.12 60.04 835.12 62.23 844.95 62.23 844.95 58.72 852.81 58.72 852.81 49.02 862.29 49.02 862.29 40.99 869.08 40.99 869.08 49.02 878.56 49.02 878.56 58.72 886.41 58.72 886.41 62.23 896.25 62.23 896.25 60.04 890.81 60.04 890.81 54.23 882.95 54.23 882.95 44.53 873.47 44.53 873.47 36.49 867.83 36.49 867.83 30.96 867.83 30.96 867.83 31.27 863.54 31.27"/>
        <polygon class="cls-1" points="840.56 2.19 840.56 7.93 848.41 7.93 848.41 17.63 857.89 17.63 857.89 25.67 863.54 25.67 863.54 31.27 863.54 31.27 867.83 31.27 867.83 30.96 867.83 25.67 873.47 25.67 873.47 17.63 882.95 17.63 882.95 7.93 890.81 7.93 890.81 2.19 896.25 2.19 896.25 0 886.41 0 886.41 3.43 878.56 3.43 878.56 13.13 869.08 13.13 869.08 21.17 862.29 21.17 862.29 13.13 852.81 13.13 852.81 3.43 844.95 3.43 844.95 0 835.12 0 835.12 2.19 840.56 2.19"/>
        <path class="cls-1" d="M820.64,5.11v8.04h-9.48v9.7h-7.85v5.81h-5.44v4.39h5.44v5.74h7.85v9.7h9.48v8.04h5.64v5.6h4.29v-5.6h5.64v-8.04h9.48v-9.7h7.85v-5.74h5.44v-4.39h-5.44v-5.81h-7.85v-9.7h-9.48V5.11h-5.64V0h-4.29v5.11h-5.64ZM831.83,9.6v8.04h9.48v9.7h7.85v6.95h-7.85v9.7h-9.48v8.04h-6.79v-8.04h-9.48v-9.7h-7.85v-6.95h7.85v-9.7h9.48v-8.04h6.79Z"/>
        <polygon class="cls-1" points="788.22 31.27 788.22 36.49 782.58 36.49 782.58 44.53 773.1 44.53 773.1 54.23 765.24 54.23 765.24 60.04 759.8 60.04 759.8 62.23 769.64 62.23 769.64 58.72 777.49 58.72 777.49 49.02 786.97 49.02 786.97 40.99 793.76 40.99 793.76 49.02 803.24 49.02 803.24 58.72 811.1 58.72 811.1 62.23 820.93 62.23 820.93 60.04 815.49 60.04 815.49 54.23 807.64 54.23 807.64 44.53 798.16 44.53 798.16 36.49 792.52 36.49 792.52 30.96 792.52 30.96 792.52 31.27 788.22 31.27"/>
        <polygon class="cls-1" points="765.24 2.19 765.24 7.93 773.1 7.93 773.1 17.63 782.58 17.63 782.58 25.67 788.22 25.67 788.22 31.27 788.22 31.27 792.52 31.27 792.52 30.96 792.52 25.67 798.16 25.67 798.16 17.63 807.64 17.63 807.64 7.93 815.49 7.93 815.49 2.19 820.93 2.19 820.93 0 811.1 0 811.1 3.43 803.24 3.43 803.24 13.13 793.76 13.13 793.76 21.17 786.97 21.17 786.97 13.13 777.49 13.13 777.49 3.43 769.64 3.43 769.64 0 759.8 0 759.8 2.19 765.24 2.19"/>
        <path class="cls-1" d="M745.33,5.11v8.04h-9.48v9.7h-7.85v5.81h-5.44v4.39h5.44v5.74h7.85v9.7h9.48v8.04h5.64v5.6h4.29v-5.6h5.64v-8.04h9.48v-9.7h7.85v-5.74h5.44v-4.39h-5.44v-5.81h-7.85v-9.7h-9.48V5.11h-5.64V0h-4.29v5.11h-5.64ZM756.52,9.6v8.04h9.48v9.7h7.85v6.95h-7.85v9.7h-9.48v8.04h-6.79v-8.04h-9.48v-9.7h-7.85v-6.95h7.85v-9.7h9.48v-8.04h6.79Z"/>
        <polygon class="cls-1" points="712.91 31.27 712.91 36.49 707.26 36.49 707.26 44.53 697.79 44.53 697.79 54.23 689.93 54.23 689.93 60.04 684.49 60.04 684.49 62.23 694.32 62.23 694.32 58.72 702.18 58.72 702.18 49.02 711.66 49.02 711.66 40.99 718.45 40.99 718.45 49.02 727.93 49.02 727.93 58.72 735.78 58.72 735.78 62.23 745.62 62.23 745.62 60.04 740.18 60.04 740.18 54.23 732.32 54.23 732.32 44.53 722.84 44.53 722.84 36.49 717.2 36.49 717.2 30.96 717.2 30.96 717.2 31.27 712.91 31.27"/>
        <polygon class="cls-1" points="689.93 2.19 689.93 7.93 697.79 7.93 697.79 17.63 707.26 17.63 707.26 25.67 712.91 25.67 712.91 31.27 712.91 31.27 717.2 31.27 717.2 30.96 717.2 25.67 722.84 25.67 722.84 17.63 732.32 17.63 732.32 7.93 740.18 7.93 740.18 2.19 745.62 2.19 745.62 0 735.78 0 735.78 3.43 727.93 3.43 727.93 13.13 718.45 13.13 718.45 21.17 711.66 21.17 711.66 13.13 702.18 13.13 702.18 3.43 694.32 3.43 694.32 0 684.49 0 684.49 2.19 689.93 2.19"/>
        <path class="cls-1" d="M670.02,5.11v8.04h-9.48v9.7h-7.85v5.81h-5.44v4.39h5.44v5.74h7.85v9.7h9.48v8.04h5.64v5.6h4.29v-5.6h5.64v-8.04h9.48v-9.7h7.85v-5.74h5.44v-4.39h-5.44v-5.81h-7.85v-9.7h-9.48V5.11h-5.64V0h-4.29v5.11h-5.64ZM681.2,9.6v8.04h9.48v9.7h7.85v6.95h-7.85v9.7h-9.48v8.04h-6.79v-8.04h-9.48v-9.7h-7.85v-6.95h7.85v-9.7h9.48v-8.04h6.79Z"/>
        <polygon class="cls-1" points="637.59 31.27 637.59 36.49 631.95 36.49 631.95 44.53 622.47 44.53 622.47 54.23 614.62 54.23 614.62 60.04 609.17 60.04 609.17 62.23 619.01 62.23 619.01 58.72 626.86 58.72 626.86 49.02 636.34 49.02 636.34 40.99 643.14 40.99 643.14 49.02 652.62 49.02 652.62 58.72 660.47 58.72 660.47 62.23 670.31 62.23 670.31 60.04 664.86 60.04 664.86 54.23 657.01 54.23 657.01 44.53 647.53 44.53 647.53 36.49 641.89 36.49 641.89 30.96 641.89 30.96 641.89 31.27 637.59 31.27"/>
        <polygon class="cls-1" points="614.62 2.19 614.62 7.93 622.47 7.93 622.47 17.63 631.95 17.63 631.95 25.67 637.59 25.67 637.59 31.27 637.59 31.27 641.89 31.27 641.89 30.96 641.89 25.67 647.53 25.67 647.53 17.63 657.01 17.63 657.01 7.93 664.86 7.93 664.86 2.19 670.31 2.19 670.31 0 660.47 0 660.47 3.43 652.62 3.43 652.62 13.13 643.14 13.13 643.14 21.17 636.34 21.17 636.34 13.13 626.86 13.13 626.86 3.43 619.01 3.43 619.01 0 609.17 0 609.17 2.19 614.62 2.19"/>
        <path class="cls-1" d="M594.7,5.11v8.04h-9.48v9.7h-7.85v5.81h-5.44v4.39h5.44v5.74h7.85v9.7h9.48v8.04h5.64v5.6h4.29v-5.6h5.64v-8.04h9.48v-9.7h7.85v-5.74h5.44v-4.39h-5.44v-5.81h-7.85v-9.7h-9.48V5.11h-5.64V0h-4.29v5.11h-5.64ZM605.89,9.6v8.04h9.48v9.7h7.85v6.95h-7.85v9.7h-9.48v8.04h-6.79v-8.04h-9.48v-9.7h-7.85v-6.95h7.85v-9.7h9.48v-8.04h6.79Z"/>
        <polygon class="cls-1" points="562.28 31.27 562.28 36.49 556.64 36.49 556.64 44.53 547.16 44.53 547.16 54.23 539.3 54.23 539.3 60.04 533.86 60.04 533.86 62.23 543.7 62.23 543.7 58.72 551.55 58.72 551.55 49.02 561.03 49.02 561.03 40.99 567.82 40.99 567.82 49.02 577.3 49.02 577.3 58.72 585.16 58.72 585.16 62.23 594.99 62.23 594.99 60.04 589.55 60.04 589.55 54.23 581.7 54.23 581.7 44.53 572.22 44.53 572.22 36.49 566.57 36.49 566.57 30.96 566.57 30.96 566.57 31.27 562.28 31.27"/>
        <polygon class="cls-1" points="539.3 2.19 539.3 7.93 547.16 7.93 547.16 17.63 556.64 17.63 556.64 25.67 562.28 25.67 562.28 31.27 562.28 31.27 566.57 31.27 566.57 30.96 566.57 25.67 572.22 25.67 572.22 17.63 581.7 17.63 581.7 7.93 589.55 7.93 589.55 2.19 594.99 2.19 594.99 0 585.16 0 585.16 3.43 577.3 3.43 577.3 13.13 567.82 13.13 567.82 21.17 561.03 21.17 561.03 13.13 551.55 13.13 551.55 3.43 543.7 3.43 543.7 0 533.86 0 533.86 2.19 539.3 2.19"/>
        <path class="cls-1" d="M519.39,5.11v8.04h-9.48v9.7h-7.85v5.81h-5.44v4.39h5.44v5.74h7.85v9.7h9.48v8.04h5.64v5.6h4.29v-5.6h5.64v-8.04h9.48v-9.7h7.85v-5.74h5.44v-4.39h-5.44v-5.81h-7.85v-9.7h-9.48V5.11h-5.64V0h-4.29v5.11h-5.64ZM530.57,9.6v8.04h9.48v9.7h7.85v6.95h-7.85v9.7h-9.48v8.04h-6.79v-8.04h-9.48v-9.7h-7.85v-6.95h7.85v-9.7h9.48v-8.04h6.79Z"/>
        <polygon class="cls-1" points="486.96 31.27 486.96 36.49 481.32 36.49 481.32 44.53 471.84 44.53 471.84 54.23 463.99 54.23 463.99 60.04 458.55 60.04 458.55 62.23 468.38 62.23 468.38 58.72 476.24 58.72 476.24 49.02 485.72 49.02 485.72 40.99 492.51 40.99 492.51 49.02 501.99 49.02 501.99 58.72 509.84 58.72 509.84 62.23 519.68 62.23 519.68 60.04 514.24 60.04 514.24 54.23 506.38 54.23 506.38 44.53 496.9 44.53 496.9 36.49 491.26 36.49 491.26 30.96 491.26 30.96 491.26 31.27 486.96 31.27"/>
        <polygon class="cls-1" points="463.99 2.19 463.99 7.93 471.84 7.93 471.84 17.63 481.32 17.63 481.32 25.67 486.96 25.67 486.96 31.27 486.96 31.27 491.26 31.27 491.26 30.96 491.26 25.67 496.9 25.67 496.9 17.63 506.38 17.63 506.38 7.93 514.24 7.93 514.24 2.19 519.68 2.19 519.68 0 509.84 0 509.84 3.43 501.99 3.43 501.99 13.13 492.51 13.13 492.51 21.17 485.72 21.17 485.72 13.13 476.24 13.13 476.24 3.43 468.38 3.43 468.38 0 458.55 0 458.55 2.19 463.99 2.19"/>
        <path class="cls-1" d="M444.07,5.11v8.04h-9.48v9.7h-7.85v5.81h-5.44v4.39h5.44v5.74h7.85v9.7h9.48v8.04h5.64v5.6h4.29v-5.6h5.64v-8.04h9.48v-9.7h7.85v-5.74h5.44v-4.39h-5.44v-5.81h-7.85v-9.7h-9.48V5.11h-5.64V0h-4.29v5.11h-5.64ZM455.26,9.6v8.04h9.48v9.7h7.85v6.95h-7.85v9.7h-9.48v8.04h-6.79v-8.04h-9.48v-9.7h-7.85v-6.95h7.85v-9.7h9.48v-8.04h6.79Z"/>
        <polygon class="cls-1" points="411.65 31.27 411.65 36.49 406.01 36.49 406.01 44.53 396.53 44.53 396.53 54.23 388.67 54.23 388.67 60.04 383.23 60.04 383.23 62.23 393.07 62.23 393.07 58.72 400.92 58.72 400.92 49.02 410.4 49.02 410.4 40.99 417.19 40.99 417.19 49.02 426.67 49.02 426.67 58.72 434.53 58.72 434.53 62.23 444.36 62.23 444.36 60.04 438.92 60.04 438.92 54.23 431.07 54.23 431.07 44.53 421.59 44.53 421.59 36.49 415.94 36.49 415.94 30.96 415.94 30.96 415.94 31.27 411.65 31.27"/>
        <polygon class="cls-1" points="388.67 2.19 388.67 7.93 396.53 7.93 396.53 17.63 406.01 17.63 406.01 25.67 411.65 25.67 411.65 31.27 411.65 31.27 415.94 31.27 415.94 30.96 415.94 25.67 421.59 25.67 421.59 17.63 431.07 17.63 431.07 7.93 438.92 7.93 438.92 2.19 444.36 2.19 444.36 0 434.53 0 434.53 3.43 426.67 3.43 426.67 13.13 417.19 13.13 417.19 21.17 410.4 21.17 410.4 13.13 400.92 13.13 400.92 3.43 393.07 3.43 393.07 0 383.23 0 383.23 2.19 388.67 2.19"/>
        <path class="cls-1" d="M368.76,5.11v8.04h-9.48v9.7h-7.85v5.81h-5.44v4.39h5.44v5.74h7.85v9.7h9.48v8.04h5.64v5.6h4.29v-5.6h5.64v-8.04h9.48v-9.7h7.85v-5.74h5.44v-4.39h-5.44v-5.81h-7.85v-9.7h-9.48V5.11h-5.64V0h-4.29v5.11h-5.64ZM379.94,9.6v8.04h9.48v9.7h7.85v6.95h-7.85v9.7h-9.48v8.04h-6.79v-8.04h-9.48v-9.7h-7.85v-6.95h7.85v-9.7h9.48v-8.04h6.79Z"/>
        <polygon class="cls-1" points="336.34 31.27 336.34 36.49 330.69 36.49 330.69 44.53 321.21 44.53 321.21 54.23 313.36 54.23 313.36 60.04 307.92 60.04 307.92 62.23 317.75 62.23 317.75 58.72 325.61 58.72 325.61 49.02 335.09 49.02 335.09 40.99 341.88 40.99 341.88 49.02 351.36 49.02 351.36 58.72 359.21 58.72 359.21 62.23 369.05 62.23 369.05 60.04 363.61 60.04 363.61 54.23 355.75 54.23 355.75 44.53 346.27 44.53 346.27 36.49 340.63 36.49 340.63 30.96 340.63 30.96 340.63 31.27 336.34 31.27"/>
        <polygon class="cls-1" points="313.36 2.19 313.36 7.93 321.21 7.93 321.21 17.63 330.69 17.63 330.69 25.67 336.34 25.67 336.34 31.27 336.34 31.27 340.63 31.27 340.63 30.96 340.63 25.67 346.27 25.67 346.27 17.63 355.75 17.63 355.75 7.93 363.61 7.93 363.61 2.19 369.05 2.19 369.05 0 359.21 0 359.21 3.43 351.36 3.43 351.36 13.13 341.88 13.13 341.88 21.17 335.09 21.17 335.09 13.13 325.61 13.13 325.61 3.43 317.75 3.43 317.75 0 307.92 0 307.92 2.19 313.36 2.19"/>
        <path class="cls-1" d="M293.44,5.11v8.04h-9.48v9.7h-7.85v5.81h-5.44v4.39h5.44v5.74h7.85v9.7h9.48v8.04h5.64v5.6h4.29v-5.6h5.64v-8.04h9.48v-9.7h7.85v-5.74h5.44v-4.39h-5.44v-5.81h-7.85v-9.7h-9.48V5.11h-5.64V0h-4.29v5.11h-5.64ZM304.63,9.6v8.04h9.48v9.7h7.85v6.95h-7.85v9.7h-9.48v8.04h-6.79v-8.04h-9.48v-9.7h-7.85v-6.95h7.85v-9.7h9.48v-8.04h6.79Z"/>
        <polygon class="cls-1" points="261.02 31.27 261.02 36.49 255.38 36.49 255.38 44.53 245.9 44.53 245.9 54.23 238.04 54.23 238.04 60.04 232.6 60.04 232.6 62.23 242.44 62.23 242.44 58.72 250.29 58.72 250.29 49.02 259.77 49.02 259.77 40.99 266.56 40.99 266.56 49.02 276.04 49.02 276.04 58.72 283.9 58.72 283.9 62.23 293.73 62.23 293.73 60.04 288.29 60.04 288.29 54.23 280.44 54.23 280.44 44.53 270.96 44.53 270.96 36.49 265.32 36.49 265.32 30.96 265.32 30.96 265.32 31.27 261.02 31.27"/>
        <polygon class="cls-1" points="238.04 2.19 238.04 7.93 245.9 7.93 245.9 17.63 255.38 17.63 255.38 25.67 261.02 25.67 261.02 31.27 261.02 31.27 265.32 31.27 265.32 30.96 265.32 25.67 270.96 25.67 270.96 17.63 280.44 17.63 280.44 7.93 288.29 7.93 288.29 2.19 293.73 2.19 293.73 0 283.9 0 283.9 3.43 276.04 3.43 276.04 13.13 266.56 13.13 266.56 21.17 259.77 21.17 259.77 13.13 250.29 13.13 250.29 3.43 242.44 3.43 242.44 0 232.6 0 232.6 2.19 238.04 2.19"/>
        <path class="cls-1" d="M218.13,5.11v8.04h-9.48v9.7h-7.85v5.81h-5.44v4.39h5.44v5.74h7.85v9.7h9.48v8.04h5.64v5.6h4.29v-5.6h5.64v-8.04h9.48v-9.7h7.85v-5.74h5.44v-4.39h-5.44v-5.81h-7.85v-9.7h-9.48V5.11h-5.64V0h-4.29v5.11h-5.64ZM229.31,9.6v8.04h9.48v9.7h7.85v6.95h-7.85v9.7h-9.48v8.04h-6.79v-8.04h-9.48v-9.7h-7.85v-6.95h7.85v-9.7h9.48v-8.04h6.79Z"/>
        <polygon class="cls-1" points="185.71 31.27 185.71 36.49 180.06 36.49 180.06 44.53 170.58 44.53 170.58 54.23 162.73 54.23 162.73 60.04 157.29 60.04 157.29 62.23 167.12 62.23 167.12 58.72 174.98 58.72 174.98 49.02 184.46 49.02 184.46 40.99 191.25 40.99 191.25 49.02 200.73 49.02 200.73 58.72 208.58 58.72 208.58 62.23 218.42 62.23 218.42 60.04 212.98 60.04 212.98 54.23 205.12 54.23 205.12 44.53 195.64 44.53 195.64 36.49 190 36.49 190 30.96 190 30.96 190 31.27 185.71 31.27"/>
        <polygon class="cls-1" points="162.73 2.19 162.73 7.93 170.58 7.93 170.58 17.63 180.06 17.63 180.06 25.67 185.71 25.67 185.71 31.27 185.71 31.27 190 31.27 190 30.96 190 25.67 195.64 25.67 195.64 17.63 205.12 17.63 205.12 7.93 212.98 7.93 212.98 2.19 218.42 2.19 218.42 0 208.58 0 208.58 3.43 200.73 3.43 200.73 13.13 191.25 13.13 191.25 21.17 184.46 21.17 184.46 13.13 174.98 13.13 174.98 3.43 167.12 3.43 167.12 0 157.29 0 157.29 2.19 162.73 2.19"/>
        <path class="cls-1" d="M142.82,5.11v8.04h-9.48v9.7h-7.85v5.81h-5.44v4.39h5.44v5.74h7.85v9.7h9.48v8.04h5.64v5.6h4.29v-5.6h5.64v-8.04h9.48v-9.7h7.85v-5.74h5.44v-4.39h-5.44v-5.81h-7.85v-9.7h-9.48V5.11h-5.64V0h-4.29v5.11h-5.64ZM154,9.6v8.04h9.48v9.7h7.85v6.95h-7.85v9.7h-9.48v8.04h-6.79v-8.04h-9.48v-9.7h-7.85v-6.95h7.85v-9.7h9.48v-8.04h6.79Z"/>
        <polygon class="cls-1" points="110.39 31.27 110.39 36.49 104.75 36.49 104.75 44.53 95.27 44.53 95.27 54.23 87.42 54.23 87.42 60.04 81.97 60.04 81.97 62.23 91.81 62.23 91.81 58.72 99.66 58.72 99.66 49.02 109.14 49.02 109.14 40.99 115.94 40.99 115.94 49.02 125.42 49.02 125.42 58.72 133.27 58.72 133.27 62.23 143.11 62.23 143.11 60.04 137.66 60.04 137.66 54.23 129.81 54.23 129.81 44.53 120.33 44.53 120.33 36.49 114.69 36.49 114.69 30.96 114.69 30.96 114.69 31.27 110.39 31.27"/>
        <polygon class="cls-1" points="87.42 2.19 87.42 7.93 95.27 7.93 95.27 17.63 104.75 17.63 104.75 25.67 110.39 25.67 110.39 31.27 110.39 31.27 114.69 31.27 114.69 30.96 114.69 25.67 120.33 25.67 120.33 17.63 129.81 17.63 129.81 7.93 137.66 7.93 137.66 2.19 143.11 2.19 143.11 0 133.27 0 133.27 3.43 125.42 3.43 125.42 13.13 115.94 13.13 115.94 21.17 109.14 21.17 109.14 13.13 99.66 13.13 99.66 3.43 91.81 3.43 91.81 0 81.97 0 81.97 2.19 87.42 2.19"/>
        <path class="cls-1" d="M67.5,5.11v8.04h-9.48v9.7h-7.85v5.81h-5.44v4.39h5.44v5.74h7.85v9.7h9.48v8.04h5.64v5.6h4.29v-5.6h5.64v-8.04h9.48v-9.7h7.85v-5.74h5.44v-4.39h-5.44v-5.81h-7.85v-9.7h-9.48V5.11h-5.64V0h-4.29v5.11h-5.64ZM78.69,9.6v8.04h9.48v9.7h7.85v6.95h-7.85v9.7h-9.48v8.04h-6.79v-8.04h-9.48v-9.7h-7.85v-6.95h7.85v-9.7h9.48v-8.04h6.79Z"/>
        <polygon class="cls-1" points="35.08 31.27 35.08 36.49 29.44 36.49 29.44 44.53 19.96 44.53 19.96 54.23 12.1 54.23 12.1 60.04 6.66 60.04 6.66 62.23 16.5 62.23 16.5 58.72 24.35 58.72 24.35 49.02 33.83 49.02 33.83 40.99 40.62 40.99 40.62 49.02 50.1 49.02 50.1 58.72 57.96 58.72 57.96 62.23 67.79 62.23 67.79 60.04 62.35 60.04 62.35 54.23 54.49 54.23 54.49 44.53 45.01 44.53 45.01 36.49 39.37 36.49 39.37 30.96 39.37 30.96 39.37 31.27 35.08 31.27"/>
        <polygon class="cls-1" points="12.1 2.19 12.1 7.93 19.96 7.93 19.96 17.63 29.44 17.63 29.44 25.67 35.08 25.67 35.08 31.27 35.08 31.27 39.37 31.27 39.37 30.96 39.37 25.67 45.01 25.67 45.01 17.63 54.49 17.63 54.49 7.93 62.35 7.93 62.35 2.19 67.79 2.19 67.79 0 57.96 0 57.96 3.43 50.1 3.43 50.1 13.13 40.62 13.13 40.62 21.17 33.83 21.17 33.83 13.13 24.35 13.13 24.35 3.43 16.5 3.43 16.5 0 6.66 0 6.66 2.19 12.1 2.19"/>
        <polygon class="cls-1" points="1052.23 5.11 1046.59 5.11 1046.59 13.15 1037.11 13.15 1037.11 22.84 1029.25 22.84 1029.25 28.65 1023.81 28.65 1023.81 33.05 1029.25 33.05 1029.25 38.79 1037.11 38.79 1037.11 48.49 1046.59 48.49 1046.59 56.52 1052.23 56.52 1052.23 62.13 1054.34 62.13 1054.34 52.03 1050.98 52.03 1050.98 43.99 1041.5 43.99 1041.5 34.29 1033.65 34.29 1033.65 27.34 1041.5 27.34 1041.5 17.64 1050.98 17.64 1050.98 9.6 1054.34 9.6 1054.34 0 1052.23 0 1052.23 5.11"/>
        <polygon class="cls-1" points="2.12 56.52 7.77 56.52 7.77 48.49 17.25 48.49 17.25 38.79 25.1 38.79 25.1 33.05 30.54 33.05 30.54 28.66 25.1 28.66 25.1 22.84 17.25 22.84 17.25 13.15 7.77 13.15 7.77 5.11 2.12 5.11 2.12 0 0 0 0 9.6 3.37 9.6 3.37 17.64 12.85 17.64 12.85 27.34 20.71 27.34 20.71 34.29 12.85 34.29 12.85 43.99 3.37 43.99 3.37 52.03 0 52.03 0 62.13 2.12 62.13 2.12 56.52"/>
      </g>
    </g>
  </g>
</svg>