<?xml version="1.0" encoding="UTF-8"?>
<svg id="Layer_2" data-name="Layer 2" xmlns="http://www.w3.org/2000/svg" viewBox="0 0 128.11 189.29">
  <defs>
    <style>
      .cls-1 {
        fill: #9a0a14;
      }
    </style>
  </defs>
  <g id="Layer_1-2" data-name="Layer 1">
    <g>
      <path class="cls-1" d="M100.37,60.77c-2.66,2.45-5.59,4.99-5.95,8.92-.15,1.67-.18,3.76.61,5.24.35.66,1.13.93,1.02,1.67-.41.08-.73-.07-1.1-.18-1.78-.55-6.03-2.59-7.64-3.6-3.13-1.96-6.18-6.77-5.76-10.6.32-2.88,2.32-9.17,3.73-11.74,2.8-5.09,6.82-8.57,12.42-10.3,2.6-.8,5.05-.79,7.72-1.06l-2.02-.44c-5.74-.02-11.26,1.5-15.2,5.82-.33.36-1.88,3.05-2.21,1.74-.03-.14.38-2.45.48-2.77,1.36-4.35,7.56-7.28,11.8-7.64s8.45.47,12.43,1.88c.88.31,4.5,1.79,5.03,2.23.36.31.18.34-.15.55-.98.64-2.73,1.14-3.84,1.78-4.22,2.41-7.65,7.62-8.78,12.3-.81,3.33.13,3.69-2.59,6.2Z"/>
      <path class="cls-1" d="M39.3,39.66c.28.23,2.3,2.45,2.36,2.68.1.38.35,3.29.31,3.69-.02.24-.13.82-.37.81-.19,0-1.75-2.64-2.25-3.13-4.3-4.25-11.27-5.47-17.07-4.59l5,.5c10.49,1.37,15.56,8.06,18.07,17.77,1.2,4.64,1.69,7.13-.96,11.46-2.58,4.22-7.09,6.01-11.58,7.51.14-1.16,1.21-1.98,1.39-3.18.87-5.79-2.77-8.35-5.93-12.08-2.5-2.95-2.27-4.87-3.48-8.23-1.48-4.1-4.14-7.68-7.9-9.9-1.25-.74-3.65-1.4-4.54-2.02-.28-.19-.47-.27-.38-.67,2.9-.86,5.63-2.36,8.54-3.29,6.34-2.02,13.49-1.79,18.79,2.65Z"/>
      <path class="cls-1" d="M57.54,106.02c-3.6,3.42-7.86,4.83-7.62,10.99.01.28-.18.87.23.82.78-4.34,2.94-6.04,6.49-8.15,3.82-2.27,8.2-4.06,10.81-7.93,5.96-8.84,1.22-22.92,2.68-32.93.12-.85.73-3.89,1.4-4.22,1.14-.56,1.56.31,1.93,1.24,1.23,3.08.2,8.32.35,11.83.5,12.02,3,21.63-7.48,30.44-4.99,4.2-14.81,4.71-13.57,13.33.23,1.61,2.2,3.92,3.87,4.12,1.25.15,2.51-.73,3.54-.89,2.29-.35-1.42,1.83-1.87,2.07-.15.08-.17.38-.23.41-.18.09-.45-.1-.67-.05-3.06.69-4.94.51-7.16-1.85-4.62-4.92-4.61-12.4-.07-17.37,2.03-2.22,5.57-3.84,6.55-6.68.47.59,1.07-.89,1.28-1.41,2.9-7.17-.98-13.56-2.62-20.32-.84-3.47-2.03-9.27-1.08-12.66.37-1.3,2.05-4.36,2.9-1.81,1.02,3.05,1.02,8.01,1.73,11.39,2.33,11.03,8.99,19.79-1.38,29.64Z"/>
      <g>
        <path class="cls-1" d="M117.07,111.57c2.53,2.3,4.89,6.91,5.23,10.35,1.74,17.67-17.75,28.86-33.15,30.1-7.76.62-15.59-.97-23.39-.2-8.57.84-17.86,10.64-16.74,19.5,1.28,10.22,12.88,15.92,21.36,9.48,4.68-3.56,6.58-11.38,1.08-15.05-2.75-1.84-7.44-1.65-8.42,1.98,1.9-.98,3.79-1.16,5.15.82,2.83,4.11-2.69,8.31-6.78,5.61-5.68-3.74-2.22-12.78,4.01-14.24,11.2-2.62,17.91,10.34,13.05,19.84-6.64,12.97-25.14,12.42-32.39.12-12.92-21.93,16.53-38.97,30.76-49.77.91-.69,1.11-1.44,1.19-1.49s.79-.04,1.25-.28c3.48-1.79,5.89-5.21,9.98-6.41,1.49-.44,4.21-.48,5.21-1.51,1.26-1.3.2-4.32.88-4.81.34-.25,4.2-1.32,4.88-1.45,10.93-2.02,18.15,6.35,12.37,16.36-5.39,9.35-18.37,13.38-28.6,13.8-3.19.13-4.68-.7-7.63.81-.72.37-1.28.89-2.04,1.24-2.15.99-4.68,1.43-6.93,2.14-.89.38.35,1.74.69,1.85,1.04.34,3.85-.65,5-1.02,1.33-.44,2.96-1.38,4.17-1.69,2.85-.73,7.15-.61,10.22-1.02,10.53-1.41,23.28-6.18,27.99-16.52,3.95-8.68-.84-17.43-10.38-18.13-1.21-.09-3.72.27-4.66-.03-1.3-.41.83-1.88,1.27-2.17,3.95-2.51,11.91-1.33,15.37,1.81ZM101.68,122.98c-2.12-.34-4.5-.13-6.61.3-3.29.67-7.81,3.59-10.7,5.46s-5.83,3.93-8.22,6.18l2.7-1.4c6.9-5.03,13.91-7.45,21.89-9.97.24-.08.95-.27.94-.58Z"/>
        <g>
          <path class="cls-1" d="M60.92,138.43c-.06.09-1.47.66-1.94.99-3.1,2.18-4.55,4.47-8.71,4.87-11.45,1.12-28.49-3-34.88-13.37-3.6-5.85-3.42-12.95,3.49-15.91s13.25.66,18.51,4.68c6.95,5.31,13.71,10.85,20.74,16.04.47.35,3.4,1.8,2.79,2.7ZM49.68,133.52c.25-.24-.63-1-.82-1.16-.86-.73-2.45-1.71-3.45-2.4-5.73-3.93-12.07-8.18-19.38-6.97.1.46.48.4.82.46,4.96.94,8.86,2.65,13.31,4.96,1.05.54,9.13,5.48,9.53,5.11Z"/>
          <path class="cls-1" d="M28.83,111.96c-.37.56-4.61-.26-5.5-.25-1.81.01-5.25,1.16-6.88,2.04-1.23.66-.67.98-.73,1.02-.11.08-.43-.27-.83-.02-.46.28-1.35,1.3-1.29,1.9l-.45-.23c-1.14,2.05-2.17,4.18-2.36,6.67-.22,2.98,1.08,6.56,2.61,9.11,1.33,2.21,5.01,5.59,7.25,7.27,8.41,6.28,19.38,8.62,29.73,7.4-.17.32-.3.68-.47,1-.34.62-1.13,1.05-1.75,1.81s-2.65,3.98-3.33,4.18c-.33.1-5.24-.58-5.98-.72-11.32-2.12-24.19-8.09-30.35-18.14-3.44-5.61-4.75-12.48-1.57-18.58,3.42-6.56,10.08-8.91,17.18-7.34.8.18,5.49,1.74,4.72,2.89Z"/>
        </g>
      </g>
      <path class="cls-1" d="M37.97,92.76c.47-.09.4-.48.47-.82.37-1.91.26-4.13.25-6.1,0-1.19-.85-5.01,1.46-4.51,1.07.23,1.06,1.27,1.12,2.17.23,3.34-.13,6.77-.26,10.08-.05,1.15.52,2.28-.21,3.63,3.02-1.67.04-7.57,4.9-7.01l-.24,8.5c-.93,6.25-8.11,10.76-13.54,6.33-3.81-3.11-3.24-9.36-3.54-13.81.55-1.63-.11-4.05.35-5.51.4-1.27,1.97-1.57,2.41-.05.71,2.44-.11,5.34.53,7.79.08.06.31-.13.35-.23.27-.55.14-4.35.12-5.29-.03-1.63-1.37-7.37,1.95-6.44.24.07.37,1.25.39,1.53.21,3.21.01,6.72.23,9.96l.59-.23-.07-12.95c.14-1.02,1.49-1.52,2.23-.81.04.04.53.94.53.99v12.77Z"/>
      <path class="cls-1" d="M90.44,112.91c-1.5,1.22-.33,5.94-1.41,7.15-.35.39-1.15.2-1.48-.11-.8-.76-.11-5.75-.62-7.4-.08-.25-.07-.72-.47-.34-.59.56,0,6.11-.24,7.37-.17.89-1.2,1.42-1.83.44-.97-1.52-.48-6.32-.74-8.28-.45-.07-.63.18-.7.59-.18.96-.01,2.89-.01,3.99,0,.5.25.96.24,1.4-.03,2.93-2.53,2.86-2.82.47-.69-5.82.16-12.89,5.55-16.24,4.84-3,13.37-1.77,11.16,5.53-.72,2.37-2.91,4.5-3.42,6.65-.36,1.48.51,5.59-1.91,5.35-.41-.04-1.3-1.01-1.3-1.29v-5.27Z"/>
      <path class="cls-1" d="M120.96,83.32c-.63-.78-.12-2.98-.41-4.16-.38-1.48-2.48-3.57-4.1-3.51-.22.36,1.26,1.34-.35,2.36-1.15.73-2.96-1.19-3.34-2.31-.73-2.14-1-5.8.89-7.42,4.09-3.48,10.2-1.02,12.72,3.17,1.75,2.9,2.51,8.98.72,11.91-1.29,2.11-4.78,1.63-6.13-.06Z"/>
      <path class="cls-1" d="M14.71,68.47c2.31,2.74.78,12.18-3.06,9.74-1.65-1.05.78-3.09.56-3.25-2.12-.64-4.66,2.87-4.9,4.59-.32,2.34,1.02,4.17-2.07,4.96-2.79.71-4.42-.39-4.87-3.21-.51-3.13-.17-5.76.95-8.68.09-.24-.12-.58-.07-.66.13-.21,1.31-1.7,1.59-2.03,2.57-3.01,9.06-4.78,11.87-1.46Z"/>
      <path class="cls-1" d="M123.68,90.91c.12.18,0,.69-.09.93-.23.67-1.73,3.15-2.2,3.9-.93,1.47-2.34,3.59-3.55,4.38l-3.8,4.07-.89.05c-.29-3.23-1.96-6.74-4.13-9.11-.31-.33-1.61-1.05-1.5-1.54,2.39-1.42,4.72-2.83,6.77-4.71.64-.59,1.06-1.66,2.06-1.93,1.81,1.63,3.36,2.78,5.7,3.59.34.12,1.52.24,1.62.38Z"/>
      <path class="cls-1" d="M12.37,87.45c.41.35,1.01,1.31,1.58,1.81,1.93,1.67,4.08,2.94,6.21,4.33-3.56,2.21-5.54,6.57-5.85,10.66-.4.41-2.22-1.59-2.58-1.99-1.85-2.04-3.71-4.6-5.31-6.75-.7-.94-1.19-3.5-2.18-4.5,1.64-.57,3.34-.78,4.85-1.71,1.04-.64,2.24-2.72,3.28-1.85Z"/>
      <path class="cls-1" d="M116.44,61.61c-3.74.1-6.85-2.49-6.54-6.41.23-2.85,3.08-5.09,1.62-7.88,1.25-.15,1.28.55,1.86,1.07,3.27,2.9,1,3.48.54,6.6-.2,1.36-.1,3.43,1.11,4.28.03-.93-.43-1.76-.48-2.69-.16-3.41,2.55-7.36,3.88-10.42.27.22.46.47.63.77.6,1.06,3.01,6.36,3.18,7.36.13.81.15,2.4.04,3.2-.2,1.39-2.6,4.3-4.02,4.08-1.1-.17-2.67-2.29-2.87-2.3s-.35.22-.12.58c.37.57,1.34.88,1.17,1.76Z"/>
      <path class="cls-1" d="M107.95,97.05c1.8,1.61,3.55,5.41,3.77,7.8.31,3.32-.16,2.15-2.22,1.99s-4.13.52-6.18.91c.12-2.26.61-4.21-.27-6.41-.46-1.15-2.12-3.2-3.13-3.9-.68-.47-3.65-1.16-2.9-2.31.33-.51,4.43-.55,5.21-.47,2.32.24,3.47.98,5.18,2.33.19.15.48,0,.53.06Z"/>
      <path class="cls-1" d="M25.79,108.22c-2.72-.37-5.03-1.5-7.85-1.66-.74-.04-1.71.61-2.11-.22s.76-4.63,1.18-5.61c1.15-2.72,3.06-4.62,5.81-5.67.71-.27,3.81-1.42,4.12-.5.38,1.12-1.85,3.73-2.27,4.93-.67,1.9-.63,3.89-.04,5.8.32,1.04,1.08,1.85,1.16,2.94Z"/>
      <path class="cls-1" d="M29.4,105.55c2.05,2.65,5.85,3.41,9.05,2.8,1.08-.2,2.62-1.55,3.16-1.54.84,0,.68,1.44.35,2.01-1.29,2.25-5.72,2.68-8.03,2.39-3.4-.43-7.37-3.15-8.09-6.67-.22-1.07-.49-4.92,1.44-4.25.49.17.87,2.91,1.21,3.72.23.56.55,1.07.91,1.55Z"/>
      <path class="cls-1" d="M89.74,99.32c-.16-1.26.93-2.21,2.05-2.52,5.73-1.56,11.87,4.27,9.68,10.14-.35.94-2.86,4.68-3.89,3.39-.38-.48.56-1.63.72-2.11.99-3.04.68-5.6-1.87-7.73-2.36-1.97-3.84-1.26-6.68-1.17Z"/>
      <path class="cls-1" d="M61.63,40.53c-.32,2.29-.9,7.09,1.89,8.08,1.29.46,2.41-.99,2.81-2.09.82-2.28.16-3.37-.09-5.56-.21-1.78.72-.23,1.14.51,1.55,2.71,2.69,7.07-.37,9.24-5.04,3.58-9.03-2.02-7.4-7.17.09-.29,1.59-3.51,2.03-3Z"/>
      <path class="cls-1" d="M125.57,47.56c-1.58,2.31,1.02,4.66,1.35,6.73.37,2.29-.37,4.65-2.3,6.02-.73.52-3.22,1.76-3.62.6,1.66-1.6,2.24-3.64,1.93-5.91-.27-1.98-2.06-3.56-.39-5.43.34-.38,2.62-2.32,3.03-2.01Z"/>
      <path class="cls-1" d="M127.62,88.72c-1.64,1.52-6.18.28-7.95-.71-.97-.54-3.31-2.5-3.47-3.58-.1-.7.32-1.74,1-2.04,1.83-.79,2.27,1.26,3.33,2.18s3.26,1.56,4.67,1.38c.79-.1,1.31-.71,2.19-.28.95.47.86,2.45.22,3.05Z"/>
      <path class="cls-1" d="M11.24,82.48c1.02,2.1-1.31,4.72-3.05,5.68-1.82,1.01-5.51,1.79-7.32.58-.92-.61-1.2-2.39-.15-2.9.56-.27,3.59.36,4.93.01,2.18-.57,3.09-4.02,5.59-3.38Z"/>
      <path class="cls-1" d="M52.66,77.47c-2.64,1.43-5.51,3.38-8.6,2.06l6.68-7.86c2.25.71,3.19,3.83,1.91,5.8Z"/>
      <path class="cls-1" d="M80.52,75.27c.89,1.14,2.1,2.56,2.9,3.78.19.29.29.47.22.83-2.23.46-8.19-1.15-8.65-3.64-.13-.71.06-2.61.44-3.22.06-.1,1.69-1.53,1.8-1.55.58-.1,2.11,2.68,2.56,3.25.22.29.58.36.73.55Z"/>
      <g>
        <path class="cls-1" d="M60.07,32.48c.99,1.08,2.91,1.83,4.02,2.9,1.42-1.24,3.58-2.14,4.46-3.74,1.36-1.57,1.29-1.7,3.63-1.31,6.01,1,12.1,7.71,12.41,13.82.05.95-.26,4.65-.83,5.28-.87.95-1.01-2.07-1.22-2.76-1.52-4.96-7.01-9.45-12.19-10.06-2.02-.24-4.93-.43-6.27,1.34-.47.15-.34-.39-.68-.71-1.75-1.62-4.56-.91-6.69-.34-4.93,1.31-9.65,4.63-11.13,9.72-.16.55-.42,3.5-.94,3.51-.76-.62-.87-1.78-1.03-2.72-1.21-7.31,4.86-15.16,11.92-16.84,3.91-.93,2.62-.17,4.53,1.91Z"/>
        <path class="cls-1" d="M72.64,6.09c.35.43,2.06-2.48,4-.83.93.79.62,2.1.92,3.18.56.02.78-.53,1.34-.65,1.01-.23,2.72-.12,3.07,1.05.25.86-.25,1.99.27,2.78.46.34,2.57-1.18,3.66.08.98,1.12.17,2.7.33,4,.74.19,1.32-.51,1.97-.47,2.24.14,2.2,3.34,1.54,4.92,2-.59,4.14.17,3.64,2.59-.23,1.1-1,1.39-1.3,2.33,2.04-.34,4.27.94,3.33,3.22-.36.88-1.82,1.31-1.7,2.4,1.66-.25,3.94,1.2,3.41,3.06l-7.39,2.57c-.37-3.16-.71-6.34-1.76-9.36-1.19-3.42-4.78-8.42-7.56-10.77-1.22-1.03-3.97-2.42-4.86-3.5-.43-.52-.66-1.42-1.18-2.1-1.54-2.05-4.16-2.92-6.42-3.89.78-1.22.48-3.63,2.24-3.85,1.99-.25,2.56,1.63,2.44,3.27Z"/>
        <path class="cls-1" d="M38.14,19.84c.92-.29.07-1.6.05-2.38-.07-2.64,2.33-2.31,4.23-1.99-1.36-3.62.78-5.5,4.21-3.75-.48-1.95-.35-4.43,2.23-4.23.64.05,1.28.65,1.84.47.69-.22-.06-2.2,1.47-3,1.76-.91,2.94.77,3.46.66.58-.13.52-2,1.56-2.67,2.22-1.43,2.1.66,2.56,2.11.15.48.85,1.44.6,1.76-2.34.4-5.67,2.07-6.73,4.28-.25.51-.36,1.57-.53,1.81-.08.11-1.95.79-2.43,1.08-7.42,4.47-10.88,12.15-12.18,20.38-.07.47.14,1.86-.39,1.96-.17.03-2.59-1.15-3.1-1.35-1.51-.57-4.92-.83-3.07-3.19.85-1.09,1.69-.9,2.77-1.44.11-.56-2.67-1.9-1.75-4.09.57-1.34,3.05-1.03,3.15-1.53-.71-1.1-1.84-2.13-1.23-3.57.71-1.65,2.18-.97,3.27-1.31Z"/>
        <path class="cls-1" d="M63.74,19.21c-.1,1.48-1.59,1.65-2.46,2.34-1.04.83-2.85,3.1-3.11,4.39-.13.67.1,2.45-.32,2.84-.07.07-1.43-.01-1.9.09-4.83,1.07-9.41,4.5-11.77,8.84-.45.82-.91,2.65-1.26,3.14-.2.28-.46.11-.72.14v-4.57c0-3.4,3.52-9.48,5.97-11.84,2.6-2.51,8.31-5.38,11.95-5.38h3.63Z"/>
        <path class="cls-1" d="M68.77,19.21c3.6.32,7.83,2.33,10.53,4.69,4.77,4.16,7.33,10.8,6.45,17.09-.37.28-1.33-2.62-1.46-2.87-2.9-5.45-7.79-9.21-14.11-9.53.09-3.33-1.28-5.28-3.62-7.4-.7-.63-1.99-.9-1.88-1.99,1.33.09,2.78-.12,4.1,0Z"/>
        <path class="cls-1" d="M77.55,21.08c-2.3-1.74-5.3-2.74-8.14-3.22-5.43-.9-10.52-.43-15.63,1.57-.83.32-1.92,1.04-2.7,1.29s-.07-1.78.12-2.23c3.19-7.16,21.92-6.9,26.08-.31.74,1.17.26,1.6.27,2.89Z"/>
        <path class="cls-1" d="M73.34,13.12c-6.01-.98-11.83-2.08-17.74.19l-.52-.32c.2-1.6,1.78-3.17,3.18-3.82,3.43-1.59,7.86-1.65,11.33-.14,1.74.75,3.65,2.02,3.75,4.09Z"/>
        <path class="cls-1" d="M63.91,22.53c.97-.19,2.76,1.45,3.3,2.23,1.49,2.11,1.37,4.66-.42,6.53-3.52,3.67-7.83-1.43-6.38-5.21.39-1.04,2.44-3.33,3.5-3.54Z"/>
        <path class="cls-1" d="M63.68.05c4.7-.77,5.34,7-.06,6.76-3.49-.15-3.46-6.18.06-6.76Z"/>
      </g>
      <path class="cls-1" d="M55.22,55.13c.49.46,2.39,3.71,1.95,4.13-.94.26-.79-.89-1.57-1.12-1.53-.45-3.06.53-4.74-.65-.62-.44-3.74-4.79-3.29-5.25.88.28,1.66.81,2.56,1.06,1.75.49,3.57.42,5.08,1.83Z"/>
      <path class="cls-1" d="M81.3,50.36c-3.54-.66-6.68.34-8.9,3.16-.39.5-.55,1.11-.94,1.64-.31.43-1.1,1.4-1.64,1.52-.06-1.31.09-2.76.58-3.98,1.63-4,5.9-5.77,9.79-3.47.21.13,1.44.82,1.1,1.12Z"/>
      <path class="cls-1" d="M46.87,50.6c-.42-.42.77-1.22,1.06-1.4,4.63-2.89,9.91.77,10.39,5.76.41,4.25-2.5-1.55-2.89-2.03-1.27-1.54-3.62-2.78-5.63-2.82-.6-.01-2.78.64-2.93.49Z"/>
      <path class="cls-1" d="M80.6,52.71c.18.17-1.74,2.93-2.01,3.26-.79.97-1.72,2.14-3.04,2.35-1.7.26-1.96-.5-3.52.69-1.68,1.28-.25-1.99.18-2.63,1.73-2.54,2.84-2.13,5.4-2.8.96-.25,1.93-.96,2.99-.87Z"/>
      <circle class="cls-1" cx="64.2" cy="122.34" r="1.87"/>
      <path class="cls-1" d="M63.33,43.41c1.08-1.2,2.61,1.73,2.1,2.91-.83,1.96-3.52.74-3-1.11.04-.13.83-1.73.9-1.8Z"/>
      <path class="cls-1" d="M121.82,62.31c.32,1-1.31.83-1.82,1.45-.04.05.16.29.11.36-.48.67-.79,1.22-1.69,1.25-1.68.06-1.02-1.17-1.5-1.96-.04-.07-1.58-1.2-.14-.85.51.12.68.49,1.4.47.53-.01,3.52-.86,3.65-.72Z"/>
      <path class="cls-1" d="M10.33,77.54v4.22c0,.09-1.51.28-1.72.21-.99-.32-.45-5.1,1.72-4.43Z"/>
      <path class="cls-1" d="M63.67,63.77c1.47-.43,2.72.69,1.81,2.05-1.65,2.47-3.93-1.42-1.81-2.05Z"/>
      <path class="cls-1" d="M64.36,67.74c.23-.01.98.48,1.14.65,1.12,1.25-1.01,3.33-2.36,1.66-.77-.94.14-2.26,1.23-2.32Z"/>
      <path class="cls-1" d="M117.76,77.8c1.9-.63,1.83,3.15.87,3.46-1.72.55-1.5-3.25-.87-3.46Z"/>
      <path class="cls-1" d="M63.32,54.87c.99-.58,2.69.4,2.12,1.75-1.15,2.7-3.57-.91-2.12-1.75Z"/>
      <circle class="cls-1" cx="64.43" cy="73.09" r="1.35"/>
      <path class="cls-1" d="M63.32,75.95c.46-.66,3.21-.44,2.36,1.29-1.03,2.08-3.38.17-2.36-1.29Z"/>
      <circle class="cls-1" cx="64.58" cy="80.2" r="1.26"/>
      <circle class="cls-1" cx="65.03" cy="83.72" r="1.25"/>
      <g>
        <path class="cls-1" d="M7.52,58.68c-.16-1.16-1.16-2.62-1.35-3.8-.45-2.85.77-3.68,1.28-6.1.24-1.11.33-5.26.86-5.7.37-.3,1.1-.39,1.27.18.43,1.38.21,3.72.56,5.29.54,2.38,1.98,3.49,1.52,6.33-.16,1.03-1.35,3-1.35,3.8v6.32c0,.52-2.81.52-2.81,0,0-1.87.23-4.58,0-6.32Z"/>
        <path class="cls-1" d="M6.28,59.1c1.06,1.34.01,1.96-1.39,1.76-6.09-.87-6.38-9.59-1.46-13.06.51-.36,2.41-1.65,2.67-.79.37,1.22-1.87,3.14-2.36,4.37-.97,2.4-.7,4.42.98,6.37.43.5,1.33,1.04,1.58,1.35Z"/>
        <path class="cls-1" d="M11.3,60.64c-.47-1.79.97-2.02,1.84-3.13,1.6-2.05,1.63-4.08.59-6.44-.52-1.18-2.17-2.85-2.23-4.1-.02-.34-.02-.43.36-.36.24.04,1.91,1.09,2.21,1.31,2.98,2.21,4.35,5.66,2.94,9.23-.81,2.06-3.44,4.26-5.7,3.48Z"/>
      </g>
    </g>
  </g>
</svg>