<?xml version="1.0" encoding="UTF-8"?>
<svg id="Layer_2" data-name="Layer 2" xmlns="http://www.w3.org/2000/svg" viewBox="0 0 628.93 242.64">
  <defs>
    <style>
      .cls-1 {
        fill: #9a0a14;
      }
    </style>
  </defs>
  <g id="Layer_1-2" data-name="Layer 1">
    <g>
      <rect class="cls-1" x="306.38" y="223.15" width="16.15" height="16.15" transform="translate(255.6 -154.63) rotate(45)"/>
      <path class="cls-1" d="M126.46,231.22c120.79-2.13,243.45-2.08,364.25-.24,0,0,11.75.24,11.75.24l-11.75.24c-120.8,1.84-243.46,1.89-364.25-.24h0Z"/>
    </g>
    <g>
      <g>
        <path class="cls-1" d="M172.48,1.98v-.8h22.34c5.66,0,9.76.12,12.29.37,2.53.25,5.12,1.08,7.77,2.49,2.65,1.41,4.66,3.32,6.01,5.72,1.35,2.41,2.03,5.36,2.03,8.85,0,3.99-1.2,7.8-3.61,11.42-2.4,3.62-5.8,6.68-10.18,9.17l5.56,8.54c1.21,2.14,4.43,6.82,9.65,14.04,5.22,7.23,9.25,11.63,12.1,13.21,2.85,1.59,5.61,2.38,8.28,2.38s5.66-1.02,9.08-3.05l.32,1.07c-4.27,3.49-9.82,5.24-16.66,5.24-4.56,0-8.47-1.35-11.74-4.04s-8.97-10.1-17.1-22.2c-.07-.07-.11-.14-.11-.21l-7.91-12.17-7.01.21h-6.37v30.09c0,2.42.32,4.15.95,5.2.63,1.05,2.17,1.57,4.6,1.57v.8h-20.3v-.8c2.53-.11,4.11-.64,4.73-1.6.62-.96.94-2.92.94-5.87V9.08c0-2.03-.27-3.71-.8-5.05-.53-1.33-2.16-2.02-4.86-2.06ZM187.23,3.26v36.92h8.24c6.5,0,11.31-1.53,14.46-4.6,3.14-3.06,4.71-7.09,4.71-12.08s-1.54-9.43-4.63-13.76-8.52-6.49-16.3-6.49h-6.48Z"/>
        <path class="cls-1" d="M280.71,1.18v.8c-1.03-.11-2.18.05-3.45.48-1.26.43-2.01,1.05-2.24,1.87-.23.82-.35,2.76-.35,5.82v60.39c0,3.27.13,5.28.4,6.01.27.73.78,1.33,1.55,1.82.77.48,2.13.72,4.09.72v.8h-21v-.8c2.64,0,4.27-.51,4.92-1.52.64-1.01.96-3.32.96-6.92V10.84c0-3.74-.36-6.19-1.07-7.34-.71-1.16-2.32-1.66-4.81-1.52v-.8h21Z"/>
        <path class="cls-1" d="M354.31,1.18h15.23v.8c-2.32.07-3.92.56-4.81,1.47-.89.91-1.34,2.82-1.34,5.74v71.65l-62.78-66.85v58.2c0,1.85.14,3.22.43,4.11.28.89.69,1.5,1.23,1.82.53.32,1.87.64,4.01.96v.8h-15.12v-.8c2.71,0,4.39-.48,5.05-1.44.66-.96.99-3.26.99-6.89V17.52c0-4.66-.65-8.47-1.95-11.43-1.3-2.95-4.3-4.33-9-4.11v-.8h14.8l58.99,62.81V8.44c0-2.99-.53-4.82-1.6-5.47-1.07-.66-2.44-.99-4.11-.99v-.8Z"/>
        <path class="cls-1" d="M455.65,79.08v.8h-31.74c-6.09,0-11.43-.66-16-1.98-4.58-1.32-9.24-3.82-14-7.51-4.75-3.69-8.6-8.27-11.54-13.76-2.94-5.49-4.41-11.1-4.41-16.83,0-6.27,1.84-12.52,5.53-18.75,3.69-6.23,8.93-11.3,15.74-15.2,6.8-3.9,14.52-5.85,23.14-5.85,7.73,0,15.9,1.71,24.53,5.13l3.26,9.08h-.79c-2.74-3.49-6.49-6.39-11.24-8.68-4.75-2.3-10.05-3.45-15.89-3.45-10.15,0-18.46,3.82-24.94,11.46-6.48,7.64-9.72,17.12-9.72,28.45,0,4.7.54,8.9,1.6,12.58,1.07,3.69,3.07,7.32,6.01,10.9,2.94,3.58,6.09,6.22,9.46,7.91,3.37,1.69,7.13,2.87,11.3,3.53,4.17.66,7.48.95,9.94.88l4.22-.11c4.77-.18,7.76-.62,8.95-1.34,1.19-.71,1.79-2.53,1.79-5.45v-11.92c0-2.32-.48-3.87-1.44-4.68-.96-.8-2.33-1.15-4.11-1.04v-.8h20.36v.8c-2.28,0-3.8.45-4.57,1.33-.77.89-1.15,2.59-1.15,5.12v12.37c0,2.49.33,4.28.99,5.36.66,1.08,1.86,1.63,3.61,1.63h1.12Z"/>
      </g>
      <g>
        <path class="cls-1" d="M68.07,113.48l2.94,8.34h-.78c-7.62-7.59-16.59-11.38-26.91-11.38s-19.38,3.19-25.98,9.56c-6.6,6.38-9.91,14.09-9.91,23.14,0,5.59,1.47,12.02,4.41,19.29,2.94,7.27,7.58,13.24,13.92,17.93,6.34,4.68,14.02,7.03,23.03,7.03,5.91,0,11.71-.95,17.39-2.86,5.68-1.91,9.91-4.46,12.69-7.67l.69.21-5.5,8.44c-8.91,1.92-14.69,3.06-17.34,3.42-2.65.36-6.21.53-10.66.53-16.49,0-28.29-3.82-35.4-11.46-7.11-7.64-10.66-16.79-10.66-27.44,0-7.19,1.83-14.11,5.48-20.76,3.65-6.64,8.91-11.88,15.79-15.71,6.87-3.83,14.73-5.74,23.56-5.74,4.42,0,8.24.4,11.46,1.2,3.22.8,5.9,1.63,8.04,2.48l3.53,1.34c.11.04.18.07.21.11Z"/>
        <path class="cls-1" d="M85.79,110.43v-.91h49.48v10.85h-.8c-1.07-4.02-1.97-6.39-2.7-7.11-.73-.71-2.52-1.07-5.37-1.07h-25.97v35.32h24.1c2.39,0,3.9-.22,4.54-.67.64-.44.98-1.1,1.02-1.95h.8v7.43h-.8c-.18-1.03-.6-1.73-1.26-2.08-.66-.36-1.88-.53-3.66-.53h-24.74v24.31c0,3.67.34,6.31,1.01,7.94.68,1.62,1.75,2.64,3.23,3.05,1.48.41,3.71.61,6.7.61h13.87c4.41,0,7.23-.15,8.46-.45,1.23-.3,2.27-.9,3.12-1.81.85-.9,1.51-2.88,1.97-5.92h.8v10.79h-53.81v-.8c1.82-.11,3.2-.45,4.14-1.04.94-.59,1.42-2.11,1.42-4.56v-63.54c0-2.88-.25-4.91-.75-6.09-.5-1.17-2.1-1.76-4.81-1.76Z"/>
        <path class="cls-1" d="M146.19,110.32v-.8h22.34c5.66,0,9.76.12,12.29.37,2.53.25,5.12,1.08,7.77,2.49,2.65,1.41,4.66,3.32,6.01,5.72,1.35,2.41,2.03,5.36,2.03,8.85,0,3.99-1.2,7.8-3.61,11.42-2.4,3.62-5.8,6.68-10.18,9.17l5.56,8.54c1.21,2.14,4.43,6.82,9.65,14.04,5.22,7.23,9.25,11.63,12.1,13.21,2.85,1.59,5.61,2.38,8.28,2.38s5.66-1.02,9.08-3.05l.32,1.07c-4.27,3.49-9.82,5.24-16.66,5.24-4.56,0-8.47-1.35-11.74-4.04s-8.97-10.1-17.1-22.2c-.07-.07-.11-.14-.11-.21l-7.91-12.17-7.01.21h-6.37v30.09c0,2.42.32,4.15.95,5.2.63,1.05,2.17,1.57,4.6,1.57v.8h-20.3v-.8c2.53-.11,4.11-.64,4.73-1.6.62-.96.94-2.92.94-5.87v-62.53c0-2.03-.27-3.71-.8-5.05-.53-1.33-2.16-2.02-4.86-2.06ZM160.94,111.61v36.92h8.24c6.5,0,11.31-1.53,14.46-4.6,3.14-3.06,4.71-7.09,4.71-12.08s-1.54-9.43-4.63-13.76-8.52-6.49-16.3-6.49h-6.48Z"/>
        <path class="cls-1" d="M233.95,110.43v-.91h49.48v10.85h-.8c-1.07-4.02-1.97-6.39-2.7-7.11-.73-.71-2.52-1.07-5.37-1.07h-25.97v35.32h24.1c2.39,0,3.9-.22,4.54-.67.64-.44.98-1.1,1.02-1.95h.8v7.43h-.8c-.18-1.03-.6-1.73-1.26-2.08-.66-.36-1.88-.53-3.66-.53h-24.74v24.31c0,3.67.34,6.31,1.01,7.94.68,1.62,1.75,2.64,3.23,3.05,1.48.41,3.71.61,6.7.61h13.87c4.41,0,7.23-.15,8.46-.45,1.23-.3,2.27-.9,3.12-1.81.85-.9,1.51-2.88,1.97-5.92h.8v10.79h-53.81v-.8c1.82-.11,3.2-.45,4.14-1.04.94-.59,1.42-2.11,1.42-4.56v-63.54c0-2.88-.25-4.91-.75-6.09-.5-1.17-2.1-1.76-4.81-1.76Z"/>
        <path class="cls-1" d="M366.3,109.52h12.42v.8c-4.2.21-6.3,2.41-6.3,6.58,0,.89.11,2.12.32,3.69l8.28,59.62c.5,2.97,1.06,4.87,1.68,5.7.62.83,1.91,1.33,3.87,1.51v.8h-17.69v-.8c2.36.07,3.54-1.06,3.54-3.4,0-.53-.11-1.57-.32-3.13l-8.08-57.81-28.21,65.13h-.53l-28.37-65.03-7.98,58.13c-.14.88-.21,1.89-.21,3.02,0,2.05,1.2,3.07,3.6,3.07v.8h-12.02v-.8c1.82,0,2.98-.22,3.5-.67.52-.45.92-1.16,1.2-2.14.28-.98.5-2.07.64-3.29l9-63.58c-1.46-3.53-2.93-5.65-4.39-6.36-1.46-.71-2.88-1.07-4.23-1.07v-.8h14.84l27.68,64.38,27.77-64.38Z"/>
        <path class="cls-1" d="M435.71,108.35c11.04,0,20.07,3.36,27.09,10.07,7.02,6.71,10.53,15.09,10.53,25.14,0,12.93-4.06,23.81-12.18,32.65-8.12,8.83-18.9,13.25-32.33,13.25-10.9,0-19.82-3.56-26.77-10.69-6.95-7.12-10.42-15.67-10.42-25.65,0-6.73,1.67-13.64,5.02-20.73,3.35-7.09,8.39-12.87,15.12-17.34,6.73-4.47,14.71-6.71,23.94-6.71ZM435.39,185.29c5.41,0,10.76-1.45,16.03-4.35,5.27-2.9,9.42-6.9,12.45-12,3.03-5.09,4.54-10.33,4.54-15.71,0-7.62-2.04-14.55-6.12-20.79-4.08-6.23-9.37-11.11-15.87-14.64-6.5-3.53-12.51-5.29-18.03-5.29-7.8,0-14.88,2.94-21.24,8.82-6.36,5.88-9.54,13.18-9.54,21.91,0,11.15,3.88,20.95,11.65,29.39,7.76,8.44,16.47,12.66,26.13,12.66Z"/>
        <path class="cls-1" d="M546.88,109.52h15.23v.8c-2.32.07-3.92.56-4.81,1.47-.89.91-1.34,2.82-1.34,5.74v71.65l-62.78-66.85v58.2c0,1.85.14,3.22.43,4.11.29.89.69,1.5,1.23,1.82.53.32,1.87.64,4.01.96v.8h-15.12v-.8c2.71,0,4.39-.48,5.05-1.44.66-.96.99-3.26.99-6.89v-53.24c0-4.66-.65-8.47-1.95-11.43-1.3-2.95-4.3-4.33-9-4.11v-.8h14.8l58.99,62.81v-55.55c0-2.99-.53-4.82-1.6-5.47-1.07-.66-2.44-.99-4.11-.99v-.8Z"/>
        <path class="cls-1" d="M617.12,109.52h11.81v.8c-1.5.11-2.73.46-3.69,1.07-.96.61-2.07,1.85-3.31,3.74l-19.24,29.18v36.03c0,2.91.38,4.82,1.13,5.73.75.91,2.39,1.36,4.91,1.36v.8h-21.05v-.8c4.03.25,6.04-1.33,6.04-4.75l-.11-2.24v-33.27l-19.29-31.93c-2.03-3.38-4.29-5.02-6.79-4.92v-.8h18.59v.8c-1.73,0-2.6.66-2.6,1.97,0,.68.45,1.72,1.34,3.15l15.88,26.19,17.34-26.4c.32-.28.68-.81,1.07-1.58.39-.77.59-1.29.59-1.58,0-1.18-.77-1.76-2.3-1.76h-.32v-.8Z"/>
      </g>
    </g>
  </g>
</svg>