<?xml version="1.0" encoding="UTF-8"?>
<svg id="Layer_2" data-name="Layer 2" xmlns="http://www.w3.org/2000/svg" viewBox="0 0 259.97 58.17">
  <defs>
    <style>
      .cls-1 {
        fill: #9a0a14;
      }
    </style>
  </defs>
  <g id="Layer_1-2" data-name="Layer 1">
    <g>
      <path class="cls-1" d="M0,16.54l1.68-1.01c1.18,2.17,2.54,3.26,4.09,3.26.66,0,1.28-.15,1.86-.46.58-.31,1.02-.72,1.33-1.24.3-.52.46-1.07.46-1.65,0-.66-.22-1.31-.67-1.94-.62-.88-1.74-1.93-3.38-3.16-1.64-1.24-2.67-2.14-3.07-2.69-.7-.93-1.05-1.93-1.05-3.02,0-.86.21-1.64.62-2.35.41-.71.99-1.26,1.74-1.67.75-.41,1.56-.61,2.43-.61.93,0,1.8.23,2.61.69.81.46,1.66,1.31,2.57,2.54l-1.61,1.22c-.74-.98-1.37-1.63-1.9-1.94-.52-.31-1.09-.47-1.71-.47-.8,0-1.45.24-1.95.72s-.76,1.08-.76,1.78c0,.43.09.84.27,1.25.18.4.5.84.98,1.31.26.25,1.11.91,2.55,1.97,1.71,1.26,2.88,2.38,3.51,3.36.63.98.95,1.97.95,2.96,0,1.43-.54,2.67-1.63,3.73-1.09,1.05-2.41,1.58-3.96,1.58-1.2,0-2.28-.32-3.26-.96-.97-.64-1.87-1.71-2.69-3.21Z"/>
      <path class="cls-1" d="M29.25.5l9.19,19.72h-2.13l-3.1-6.49h-8.49l-3.07,6.49h-2.2L28.77.5h.48ZM29,4.68l-3.38,7.14h6.74l-3.36-7.14Z"/>
      <path class="cls-1" d="M45.49.5h2.14l6.53,15.23L60.81.5h2.14l-8.58,19.72h-.43L45.49.5Z"/>
      <path class="cls-1" d="M71.77.5h11.3v1.93h-9.33v6.18h9.25v1.93h-9.25v7.75h9.25v1.93h-11.22V.5Z"/>
      <path class="cls-1" d="M103.1,2.43V.5h10.8v1.93h-4.4v17.79h-2.01V2.43h-4.4Z"/>
      <path class="cls-1" d="M122.2.5h1.97v8.27h10.04V.5h1.97v19.72h-1.97v-9.52h-10.04v9.52h-1.97V.5Z"/>
      <path class="cls-1" d="M146.48.5h11.3v1.93h-9.33v6.18h9.25v1.93h-9.25v7.75h9.25v1.93h-11.22V.5Z"/>
      <path class="cls-1" d="M179.77,20.21V.5h4.09c2.95,0,5.09.24,6.42.71,1.91.67,3.41,1.83,4.48,3.48,1.08,1.65,1.62,3.62,1.62,5.91,0,1.97-.43,3.71-1.28,5.21-.85,1.5-1.96,2.61-3.32,3.32s-3.27,1.07-5.73,1.07h-6.27ZM181.66,18.35h2.28c2.72,0,4.62-.17,5.67-.51,1.48-.48,2.65-1.35,3.5-2.6.85-1.25,1.27-2.79,1.27-4.6,0-1.9-.46-3.53-1.38-4.87s-2.2-2.27-3.85-2.77c-1.23-.38-3.27-.56-6.1-.56h-1.39v15.92Z"/>
      <path class="cls-1" d="M213.74.5l9.2,19.72h-2.13l-3.1-6.49h-8.49l-3.07,6.49h-2.2L213.25.5h.48ZM213.49,4.68l-3.38,7.14h6.74l-3.36-7.14Z"/>
      <path class="cls-1" d="M229.52,2.43V.5h10.8v1.93h-4.4v17.79h-2.01V2.43h-4.4Z"/>
      <path class="cls-1" d="M248.67.5h11.3v1.93h-9.33v6.18h9.25v1.93h-9.25v7.75h9.25v1.93h-11.22V.5Z"/>
    </g>
    <g>
      <path class="cls-1" d="M56.28,37.96h9.88v1.93h-7.91v6.18h7.91v1.93h-7.91v9.68h-1.97v-19.72Z"/>
      <path class="cls-1" d="M84.46,37.47c2.99,0,5.48,1,7.5,2.99s3.02,4.45,3.02,7.36-1,5.33-3.01,7.35c-2.01,2.01-4.46,3.02-7.34,3.02s-5.39-1-7.4-3-3.02-4.42-3.02-7.26c0-1.89.46-3.65,1.37-5.27.92-1.62,2.17-2.88,3.75-3.8,1.58-.92,3.29-1.37,5.14-1.37ZM84.55,39.38c-1.46,0-2.84.38-4.15,1.14s-2.33,1.78-3.06,3.07-1.1,2.72-1.1,4.31c0,2.34.81,4.32,2.44,5.94,1.62,1.61,3.58,2.42,5.87,2.42,1.53,0,2.95-.37,4.25-1.11,1.3-.74,2.32-1.76,3.05-3.04.73-1.29,1.09-2.72,1.09-4.29s-.36-2.98-1.09-4.25c-.73-1.27-1.76-2.28-3.08-3.04-1.32-.76-2.73-1.14-4.22-1.14Z"/>
      <path class="cls-1" d="M104.53,37.96h3.93c2.19,0,3.67.09,4.45.27,1.17.27,2.12.84,2.85,1.72.73.88,1.1,1.97,1.1,3.25,0,1.07-.25,2.02-.76,2.83s-1.23,1.43-2.16,1.85c-.94.42-2.23.63-3.89.64l7.09,9.15h-2.44l-7.09-9.15h-1.11v9.15h-1.97v-19.72ZM106.5,39.89v6.7l3.4.03c1.32,0,2.29-.12,2.92-.38.63-.25,1.12-.65,1.48-1.2.35-.55.53-1.16.53-1.84s-.18-1.26-.54-1.8-.83-.93-1.41-1.16c-.58-.23-1.55-.35-2.9-.35h-3.48Z"/>
      <path class="cls-1" d="M149.05,37.47c2.99,0,5.49,1,7.5,2.99s3.02,4.45,3.02,7.36-1,5.33-3.01,7.35c-2.01,2.01-4.46,3.02-7.34,3.02s-5.39-1-7.4-3-3.02-4.42-3.02-7.26c0-1.89.46-3.65,1.37-5.27.92-1.62,2.17-2.88,3.75-3.8,1.58-.92,3.29-1.37,5.14-1.37ZM149.14,39.38c-1.46,0-2.84.38-4.15,1.14s-2.33,1.78-3.06,3.07c-.73,1.29-1.1,2.72-1.1,4.31,0,2.34.81,4.32,2.44,5.94s3.58,2.42,5.87,2.42c1.53,0,2.95-.37,4.25-1.11s2.32-1.76,3.05-3.04c.73-1.29,1.09-2.72,1.09-4.29s-.37-2.98-1.09-4.25c-.73-1.27-1.76-2.28-3.08-3.04-1.33-.76-2.73-1.14-4.22-1.14Z"/>
      <path class="cls-1" d="M169.08,37.96h1.97v11.9c0,1.41.03,2.29.08,2.64.1.78.33,1.43.68,1.95.36.52.91.96,1.65,1.31.74.35,1.49.53,2.24.53.65,0,1.28-.14,1.88-.42s1.1-.66,1.5-1.15c.4-.49.7-1.09.88-1.78.13-.5.2-1.53.2-3.08v-11.9h1.97v11.9c0,1.76-.17,3.18-.52,4.27-.34,1.09-1.03,2.03-2.06,2.83s-2.28,1.21-3.75,1.21c-1.59,0-2.95-.38-4.09-1.14-1.13-.76-1.89-1.76-2.28-3.02-.24-.77-.36-2.15-.36-4.15v-11.9Z"/>
      <path class="cls-1" d="M192.58,37.96h3.93c2.19,0,3.67.09,4.45.27,1.17.27,2.12.84,2.86,1.72.73.88,1.1,1.97,1.1,3.25,0,1.07-.25,2.02-.76,2.83s-1.23,1.43-2.17,1.85-2.23.63-3.89.64l7.09,9.15h-2.44l-7.09-9.15h-1.11v9.15h-1.97v-19.72ZM194.55,39.89v6.7l3.4.03c1.32,0,2.29-.12,2.92-.38.63-.25,1.12-.65,1.48-1.2.35-.55.53-1.16.53-1.84s-.18-1.26-.54-1.8-.83-.93-1.41-1.16c-.58-.23-1.55-.35-2.9-.35h-3.48Z"/>
    </g>
  </g>
</svg>